<svg xmlns="http://www.w3.org/2000/svg" width="107.377" height="62.637" viewBox="0 0 107.377 62.637"><path d="M107.4,19.073H8.974A4.487,4.487,0,0,1,4.5,14.6h0a4.487,4.487,0,0,1,4.474-4.474H107.4a4.487,4.487,0,0,1,4.474,4.474h0A4.487,4.487,0,0,1,107.4,19.073Z" transform="translate(-4.5 -10.125)"/><path d="M107.4,25.823H8.974A4.487,4.487,0,0,1,4.5,21.349h0a4.487,4.487,0,0,1,4.474-4.474H107.4a4.487,4.487,0,0,1,4.474,4.474h0A4.487,4.487,0,0,1,107.4,25.823Z" transform="translate(-4.5 9.969)"/><path d="M107.4,32.573H8.974A4.487,4.487,0,0,1,4.5,28.1h0a4.487,4.487,0,0,1,4.474-4.474H107.4a4.487,4.487,0,0,1,4.474,4.474h0A4.487,4.487,0,0,1,107.4,32.573Z" transform="translate(-4.5 30.064)"/></svg>